<?xml version="1.0" encoding="UTF-8"?>
<svg id="Layer_1" xmlns="http://www.w3.org/2000/svg" version="1.1" viewBox="0 0 540 273.6">
  <!-- Generator: Adobe Illustrator 29.5.1, SVG Export Plug-In . SVG Version: 2.1.0 Build 141)  -->
  <g id="Layer_3">
    <g>
      <polygon points="314.8 25.2 368.7 101 349.3 115 295.1 39.1 314.8 25.2" fill="#030303"/>
      <path d="M412.5,143.3h-78.8v7.3h51.2v30.3h-38.6c-33.6,0-60.8-27.3-60.8-60.8s9-36.9,23.6-48.2l38.2,53.5,31.6-22.3-62.5-88.2-31.6,22.6,20.3,28.2c-17,12.6-26.9,32.9-26.9,54.2,0,36.2,28.6,66.2,64.5,67.8v9h-42.6v16h7.6v-8.6h77.6v8.6h7.3v-16h-42.6v-8.6h42.6v-37.6h20v-7.2h0Z" fill="#2b388b"/>
      <polygon points="287.2 28.8 278.9 17.5 299.5 2.9 307.8 14.2 301.8 18.5 297.8 13.2 289.1 19.2 293.1 24.5 287.2 28.8" fill="#4f98d3"/>
      <polygon points="356.7 126.3 377.6 111.3 381.9 117.7 361 132.6 356.7 126.3" fill="#4f98d3"/>
      <polygon points="278.9 157.2 275.2 150.6 242.6 169.5 207.7 149.3 207.7 109 242.6 88.7 269.5 104.3 273.2 98 242.6 80.1 203.7 102.7 165.1 80.1 124.5 103.7 128.5 110 165.1 88.7 200 109 200 153.5 238.9 176.1 238.9 210.7 246.3 210.7 246.3 176.1 278.9 157.2" fill="#49b749"/>
      <rect x="320.3" y="23.6" width="23.9" height="93.2" transform="translate(21 206) rotate(-35.5)" fill="#fff"/>
    </g>
  </g>
  <g>
    <path d="M4,221.8h13.2l7.1,19.2c.9,2.6,1.6,5.5,2.4,8.2h.3c.9-2.7,1.6-5.6,2.4-8.2l6.8-19.2h13.2v46.8h-11.2v-13.8c0-4.8,1-12,1.6-16.7h-.3l-3.9,11.2-5.8,15.5h-6.6l-5.8-15.5-3.7-11.2h-.3c.6,4.7,1.6,12,1.6,16.7v13.8H4v-46.8Z" fill="#231f20"/>
    <path d="M58.1,221.9c0-3.6,2.9-6.2,6.9-6.2s6.9,2.6,6.9,6.2-2.9,6.2-6.9,6.2-6.9-2.6-6.9-6.2ZM58.8,232.6h12.4v36h-12.4v-36Z" fill="#231f20"/>
    <path d="M77.7,250.6c0-12,9.1-18.9,19.3-18.9s7.8,1.4,10.5,3.7l-5.8,7.9c-1.6-1.3-2.7-1.7-4-1.7-4.6,0-7.3,3.5-7.3,8.9s3,8.9,6.9,8.9,4-1,5.8-2.3l4.8,8.1c-3.6,3.2-8.2,4.2-12,4.2-10.2,0-18.1-6.9-18.1-18.9Z" fill="#231f20"/>
    <path d="M113.5,232.6h10.1l.9,6.2h.3c2.7-4.9,6.7-7.1,10.2-7.1s3.5.3,4.5.7l-2,10.7c-1.3-.3-2.4-.6-4-.6-2.6,0-5.8,1.6-7.5,6v20h-12.4v-36Z" fill="#231f20"/>
    <path d="M141,250.6c0-12,8.6-18.9,17.9-18.9s17.9,6.9,17.9,18.9-8.6,18.9-17.9,18.9-17.9-6.9-17.9-18.9ZM164.1,250.6c0-5.5-1.4-8.9-5.2-8.9s-5.2,3.5-5.2,8.9,1.4,8.9,5.2,8.9,5.2-3.5,5.2-8.9Z" fill="#231f20"/>
    <path d="M193.5,264.7h-.3l-1,3.9h-9.6v-50.1h12.4v11.7l-.3,5.2c2.5-2.3,5.7-3.6,8.9-3.6,8.5,0,14,7.2,14,18.2s-7.3,19.5-15,19.5-6.3-1.6-9.1-4.8ZM204.8,250.1c0-5.9-1.7-8.4-5-8.4s-3.3.7-4.9,2.6v13.2c1.4,1.3,3,1.7,4.6,1.7,2.9,0,5.3-2.3,5.3-9.2Z" fill="#231f20"/>
    <path d="M222.4,250.6c0-11.7,8.5-18.9,17.3-18.9s15.7,7.8,15.7,17.4-.3,4.3-.5,5.2h-20.5c1.2,4.3,4.3,5.8,8.4,5.8s4.8-.7,7.3-2.2l4,7.3c-3.9,2.7-9.1,4.2-13.1,4.2-10.5,0-18.6-6.9-18.6-18.9ZM244.9,246.2c0-2.7-1.2-5.2-4.9-5.2s-5,1.6-5.8,5.2h10.7Z" fill="#231f20"/>
    <path d="M277.6,221.8h13.8c14.3,0,24,6.6,24,23.2s-9.8,23.6-23.3,23.6h-14.5v-46.8ZM290.7,258.6c6.8,0,12.1-2.7,12.1-13.7s-5.3-13.2-12.1-13.2h-.7v26.9h.7Z" fill="#231f20"/>
    <path d="M320.9,250.6c0-11.7,8.5-18.9,17.3-18.9s15.7,7.8,15.7,17.4-.3,4.3-.5,5.2h-20.5c1.2,4.3,4.3,5.8,8.4,5.8s4.8-.7,7.3-2.2l4,7.3c-3.9,2.7-9.1,4.2-13.1,4.2-10.5,0-18.6-6.9-18.6-18.9ZM343.4,246.2c0-2.7-1.2-5.2-4.9-5.2s-5,1.6-5.8,5.2h10.7Z" fill="#231f20"/>
    <path d="M358.8,250.6c0-12,9.1-18.9,19.3-18.9s7.8,1.4,10.5,3.7l-5.8,7.9c-1.6-1.3-2.7-1.7-4-1.7-4.6,0-7.3,3.5-7.3,8.9s3,8.9,6.9,8.9,4-1,5.8-2.3l4.8,8.1c-3.6,3.2-8.2,4.2-12,4.2-10.2,0-18.1-6.9-18.1-18.9Z" fill="#231f20"/>
    <path d="M390.6,250.6c0-12,8.6-18.9,17.9-18.9s17.9,6.9,17.9,18.9-8.6,18.9-17.9,18.9-17.9-6.9-17.9-18.9ZM413.6,250.6c0-5.5-1.4-8.9-5.2-8.9s-5.2,3.5-5.2,8.9,1.4,8.9,5.2,8.9,5.2-3.5,5.2-8.9Z" fill="#231f20"/>
    <path d="M431.2,250.6c0-11.8,7.3-18.9,14.7-18.9s6.2,1.4,8.4,3.6l-.4-5.2v-11.7h12.4v50.1h-10.1l-.9-3.3h-.3c-2.4,2.4-5.9,4.2-9.1,4.2-8.9,0-14.7-7.2-14.7-18.9ZM453.8,256.8v-13.2c-1.4-1.3-3.3-1.7-4.9-1.7-2.6,0-5,2.3-5,8.6s2,8.9,5.3,8.9,3.3-.6,4.6-2.6Z" fill="#231f20"/>
    <path d="M472.7,250.6c0-11.7,8.5-18.9,17.3-18.9s15.7,7.8,15.7,17.4-.3,4.3-.5,5.2h-20.5c1.2,4.3,4.3,5.8,8.4,5.8s4.8-.7,7.3-2.2l4,7.3c-3.9,2.7-9.1,4.2-13.1,4.2-10.5,0-18.6-6.9-18.6-18.9ZM495.1,246.2c0-2.7-1.2-5.2-4.9-5.2s-5,1.6-5.8,5.2h10.7Z" fill="#231f20"/>
    <path d="M512.4,232.6h10.1l.9,6.2h.3c2.7-4.9,6.7-7.1,10.2-7.1s3.5.3,4.5.7l-2,10.7c-1.3-.3-2.4-.6-4-.6-2.6,0-5.8,1.6-7.5,6v20h-12.4v-36Z" fill="#231f20"/>
  </g>
</svg>
